HIERARCHY
ROOT Hips
{
	OFFSET 0.000000 0.000000 0.000000
	CHANNELS 6 Xposition Yposition Zposition Zrotation Yrotation Xrotation 
	JOINT LHipJoint
	{
		OFFSET 0.000000 0.000000 0.000000
		CHANNELS 3 Zrotation Yrotation Xrotation
		JOINT LeftUpLeg
		{
			OFFSET 1.363060 -1.794630 0.839290
			CHANNELS 3 Zrotation Yrotation Xrotation
			JOINT LeftLeg
			{
				OFFSET 2.448110 -6.726130 0.000000
				CHANNELS 3 Zrotation Yrotation Xrotation
				JOINT LeftFoot
				{
					OFFSET 2.562200 -7.039590 0.000000
					CHANNELS 3 Zrotation Yrotation Xrotation
					JOINT LeftToeBase
					{
						OFFSET 0.157640 -0.433110 2.322550
						CHANNELS 3 Zrotation Yrotation Xrotation
						End Site
						{
							OFFSET 0.000000 0.000000 0.000000
						}
					}
				}
			}
		}
	}
	JOINT RHipJoint
	{
		OFFSET 0.000000 0.000000 0.000000
		CHANNELS 3 Zrotation Yrotation Xrotation
		JOINT RightUpLeg
		{
			OFFSET -1.305520 -1.794630 0.839290
			CHANNELS 3 Zrotation Yrotation Xrotation
			JOINT RightLeg
			{
				OFFSET -2.542530 -6.985550 0.000000
				CHANNELS 3 Zrotation Yrotation Xrotation
				JOINT RightFoot
				{
					OFFSET -2.568260 -7.056230 0.000000
					CHANNELS 3 Zrotation Yrotation Xrotation
					JOINT RightToeBase
					{
						OFFSET -0.164730 -0.452590 2.363150
						CHANNELS 3 Zrotation Yrotation Xrotation
						End Site
						{
							OFFSET 0.000000 0.000000 0.000000
						}
					}
				}
			}
		}
	}
	JOINT LowerBack
	{
		OFFSET 0.000000 0.000000 0.000000
		CHANNELS 3 Zrotation Yrotation Xrotation
		JOINT Spine
		{
			OFFSET 0.028270 2.035590 -0.193380
			CHANNELS 3 Zrotation Yrotation Xrotation
			JOINT Spine1
			{
				OFFSET 0.056720 2.048850 -0.042750
				CHANNELS 3 Zrotation Yrotation Xrotation
				JOINT Neck
				{
					OFFSET 0.000000 0.000000 0.000000
					CHANNELS 3 Zrotation Yrotation Xrotation
					JOINT Neck1
					{
						OFFSET -0.054170 1.746240 0.172020
						CHANNELS 3 Zrotation Yrotation Xrotation
						JOINT Head
						{
							OFFSET 0.104070 1.761360 -0.123970
							CHANNELS 3 Zrotation Yrotation Xrotation
							End Site
							{
								OFFSET 0.000000 0.000000 0.000000
							}
						}
					}
				}
				JOINT LeftShoulder
				{
					OFFSET 0.000000 0.000000 0.000000
					CHANNELS 3 Zrotation Yrotation Xrotation
					JOINT LeftArm
					{
						OFFSET 3.362410 1.200890 -0.311210
						CHANNELS 3 Zrotation Yrotation Xrotation
						JOINT LeftForeArm
						{
							OFFSET 4.983000 -0.000000 -0.000000
							CHANNELS 3 Zrotation Yrotation Xrotation
							JOINT LeftHand
							{
								OFFSET 3.483560 -0.000000 -0.000000
								CHANNELS 3 Zrotation Yrotation Xrotation
								JOINT LeftFingerBase
								{
									OFFSET 0.000000 0.000000 0.000000
									CHANNELS 3 Zrotation Yrotation Xrotation
									JOINT LeftHandIndex1
									{
										OFFSET 0.715260 -0.000000 -0.000000
										CHANNELS 3 Zrotation Yrotation Xrotation
										End Site
										{
											OFFSET 0.000000 0.000000 0.000000
										}
									}
								}
								JOINT LThumb
								{
									OFFSET 0.000000 0.000000 0.000000
									CHANNELS 3 Zrotation Yrotation Xrotation
									End Site
									{
										OFFSET 0.000000 0.000000 0.000000
									}
								}
							}
						}
					}
				}
				JOINT RightShoulder
				{
					OFFSET 0.000000 0.000000 0.000000
					CHANNELS 3 Zrotation Yrotation Xrotation
					JOINT RightArm
					{
						OFFSET -3.136600 1.374050 -0.404650
						CHANNELS 3 Zrotation Yrotation Xrotation
						JOINT RightForeArm
						{
							OFFSET -5.241900 -0.000000 -0.000000
							CHANNELS 3 Zrotation Yrotation Xrotation
							JOINT RightHand
							{
								OFFSET -3.444170 -0.000000 -0.000000
								CHANNELS 3 Zrotation Yrotation Xrotation
								JOINT RightFingerBase
								{
									OFFSET 0.000000 0.000000 0.000000
									CHANNELS 3 Zrotation Yrotation Xrotation
									JOINT RightHandIndex1
									{
										OFFSET -0.622530 -0.000000 -0.000000
										CHANNELS 3 Zrotation Yrotation Xrotation
										End Site
										{
											OFFSET 0.000000 0.000000 0.000000
										}
									}
								}
								JOINT RThumb
								{
									OFFSET 0.000000 0.000000 0.000000
									CHANNELS 3 Zrotation Yrotation Xrotation
									End Site
									{
										OFFSET 0.000000 0.000000 0.000000
									}
								}
							}
						}
					}
				}
			}
		}
	}
}
MOTION
Frames: 6
Frame Time: 0.008333
7.825601 17.842994 -18.924374 1.188982 -78.695305 0.836836 9.114274 4.218871 1.067106 -24.797732 -10.117694 -18.598798 9.481220 13.598758 48.183787 -1.200585 -7.792962 -7.107758 0.837200 -5.836700 -16.311400 -8.097185 -3.778263 -0.583017 27.180802 4.027015 -14.196009 -9.968248 -14.518629 50.690977 -0.597713 -1.605916 -14.587211 -0.733200 5.470700 -15.256100 -1.009874 0.675511 2.124424 3.618130 0.317130 10.165218 0.845891 0.784911 -11.619823 -3.660327 6.168246 -27.084429 3.028238 8.949088 25.132447 3.760400 4.071500 10.721900 0.706710 5.969236 -2.149592 -60.744531 4.060919 -8.066058 36.323756 -48.528453 -10.530197 0.170801 3.759380 -17.965685 12.147373 42.316993 6.847400 -7.125000 0.000000 0.000000 -32.575400 66.692500 -17.810100 -3.947547 -6.142697 -2.358421 61.368048 -6.893347 -30.248580 -31.954048 45.749403 -8.528523 -0.397611 -1.091871 -26.089207 -22.478813 4.293366 -2.063100 7.125000 0.000000 0.000000 3.754900 -24.380500 1.873900 
7.837399 17.798663 -18.974144 0.004200 -78.748950 1.934322 9.045610 4.243605 1.108676 -25.198636 -10.275634 -18.924487 9.689263 13.836147 49.148915 -1.545828 -9.123967 -6.277380 0.885100 -5.997000 -16.775800 -8.012391 -3.837188 -0.470004 27.888480 4.231423 -14.745277 -10.147906 -14.690524 51.567545 -0.535238 -1.269058 -13.965482 -0.671900 5.241600 -14.598800 -1.063952 0.641068 2.187942 4.036448 0.250851 10.274221 0.841303 0.755337 -11.498411 -3.545970 6.130630 -28.014559 3.458060 8.803051 26.119497 3.892300 4.069500 11.103000 0.514813 6.062448 -2.042099 -63.213538 3.794312 -7.547862 34.668137 -46.999149 -9.620495 0.276684 3.715145 -16.996393 11.973602 42.845780 6.798900 -7.125000 0.000000 0.000000 -33.665400 67.108400 -18.775200 -3.773972 -6.168143 -2.220425 63.798447 -6.468974 -29.611080 -31.539964 45.372327 -8.469810 -0.427521 -1.041799 -26.635323 -22.668461 3.901904 -1.896400 7.125000 0.000000 0.000000 3.625300 -24.872800 1.767600 
7.853067 17.738294 -19.019028 -0.517437 -78.815871 2.213593 8.993053 4.241912 1.121553 -25.804578 -10.342360 -18.970789 9.874085 14.022492 49.945219 -1.889143 -10.463391 -5.414811 0.948400 -6.202200 -17.372300 -7.926036 -3.864557 -0.352273 28.423916 4.601968 -15.060114 -10.340075 -14.867291 52.478913 -0.458779 -0.777245 -13.169513 -0.637000 5.106500 -14.212600 -1.290478 0.622012 2.438627 4.755575 0.195985 10.362658 0.774795 0.734462 -11.444289 -4.275259 6.060059 -27.372012 4.113806 8.848419 25.359532 4.081600 4.140200 10.792800 0.301687 6.144687 -1.982293 -65.794317 3.586414 -7.027448 33.114611 -45.480368 -8.797594 0.395330 3.649345 -15.803755 11.904598 43.253397 6.804500 -7.125000 0.000000 0.000000 -34.510600 67.466600 -19.566700 -3.621383 -6.158721 -2.143175 65.976351 -6.208933 -28.843868 -31.243342 45.058228 -8.437536 -0.454734 -1.032862 -27.428045 -22.836781 3.117456 -1.579000 7.125000 0.000000 0.000000 3.528800 -25.752900 1.648000 
7.865878 17.665576 -19.065111 -0.232492 -78.991721 2.038830 8.928767 4.273424 1.095379 -26.484003 -10.212897 -19.345972 10.035614 14.189787 50.604084 -2.252791 -11.872225 -4.464882 0.818000 -5.771000 -16.121500 -7.850636 -3.926730 -0.208192 28.718305 5.202233 -15.845155 -10.570652 -15.060761 53.526670 -0.370089 -0.188040 -12.059790 -0.554500 4.770000 -13.253600 -1.190612 0.782553 2.462011 4.652678 0.437182 10.060937 0.675321 0.824057 -11.304505 -4.371269 5.924725 -26.732087 4.183090 8.668286 24.851837 4.017800 4.068600 10.588400 0.158076 6.158672 -1.905665 -67.672437 3.276748 -5.423518 31.539898 -43.806720 -7.937262 0.478142 3.634337 -15.191854 11.768985 43.712105 6.753900 -7.125000 0.000000 0.000000 -35.480400 67.798800 -20.431500 -3.396141 -6.153468 -2.021354 68.413337 -6.518834 -28.176560 -31.009737 44.748576 -8.421569 -0.484779 -1.026162 -28.725355 -23.123578 2.550385 -1.349300 7.125000 0.000000 0.000000 3.348600 -26.405600 1.512400 
7.876569 17.572765 -19.112668 -0.155627 -79.250418 2.142408 8.862669 4.327476 1.106242 -27.056826 -9.942540 -19.813570 10.165575 14.322225 51.143506 -2.608403 -13.275161 -3.955009 0.727000 -5.447900 -15.190700 -7.748079 -4.023451 0.018426 28.989325 5.786129 -16.869637 -10.817555 -15.252088 54.642814 -0.305093 0.203340 -10.938581 -0.493200 4.502900 -12.495900 -1.240385 0.960141 2.031581 4.695990 0.654419 10.304875 0.685088 0.938770 -10.932908 -4.326908 5.768255 -26.615338 3.883134 8.490768 24.426396 3.889800 3.948400 10.522700 0.001117 6.177715 -1.873212 -69.650406 2.604111 -4.170929 29.877106 -41.984218 -7.028731 0.486526 3.638139 -14.612476 10.596894 44.576893 6.093500 -7.125000 0.000000 0.000000 -38.068300 68.086600 -22.325000 -3.211230 -6.189709 -1.946022 70.893646 -6.343681 -27.711556 -30.642908 44.380289 -8.348763 -0.511505 -0.994074 -29.950421 -23.336343 2.413276 -1.278500 7.125000 0.000000 0.000000 3.205800 -26.620600 1.431600 
7.890670 17.473134 -19.159396 0.400375 -79.451260 1.411452 8.826414 4.344464 1.112975 -27.790468 -9.670700 -19.826774 10.274875 14.401858 51.532108 -2.840555 -14.194184 -3.095417 0.557200 -4.781400 -13.286100 -7.622877 -4.097301 0.239948 29.117476 6.138439 -17.567288 -11.055705 -15.453739 55.788696 -0.294033 0.129873 -10.059633 -0.451800 4.312300 -11.957100 -1.681365 1.007743 1.805827 5.086213 0.634581 11.003413 0.978668 1.002356 -10.636451 -3.820006 6.056304 -26.714667 2.520129 8.942730 24.098339 3.604000 3.986100 10.530100 -0.257806 6.180238 -1.874594 -72.502718 1.834369 -4.912561 28.427705 -40.471032 -6.304821 0.462847 3.562085 -12.896437 7.944102 45.335441 4.478300 -7.125000 0.000000 0.000000 -41.877000 67.847600 -24.629600 -3.114115 -6.297638 -1.936370 73.098695 -5.633517 -27.080842 -30.152967 43.960440 -8.229177 -0.533875 -0.968978 -30.875536 -23.429402 2.078507 -1.122300 7.125000 0.000000 0.000000 3.152900 -27.040000 1.376800 
